<mxfile host="app.diagrams.net" modified="2023-02-23T15:53:02.340Z" agent="5.0 (X11; Ubuntu)" etag="GtZHohC_eWSuAyW4RpOY" version="20.3.0" type="github">
  <diagram id="QWcHRJpWfeQXFMJefIEu" name="Page-1">
    <mxGraphModel dx="3100" dy="344" grid="1" gridSize="10" guides="1" tooltips="1" connect="1" arrows="1" fold="1" page="1" pageScale="1" pageWidth="1169" pageHeight="827" math="0" shadow="0">
      <root>
        <mxCell id="0" />
        <mxCell id="1" parent="0" />
        <mxCell id="eaU4gPAbgvnITO38szU_-100" value="" style="verticalLabelPosition=bottom;verticalAlign=top;html=1;shape=mxgraph.basic.patternFillRect;fillStyle=diag;step=5;fillStrokeWidth=0.2;fillStrokeColor=#dddddd;fillColor=#dae8fc;strokeColor=#6c8ebf;" parent="1" vertex="1">
          <mxGeometry x="-995" y="1094" width="1265" height="764" as="geometry" />
        </mxCell>
        <mxCell id="eaU4gPAbgvnITO38szU_-101" value="Accions automatitzaades a la web" style="rounded=0;whiteSpace=wrap;html=1;fillColor=#ffffff;" parent="1" vertex="1">
          <mxGeometry x="-1070" y="1798" width="215" height="40" as="geometry" />
        </mxCell>
        <mxCell id="AwSX1SjbMn1UK7kxIGxx-265" value="&lt;h1&gt;3. Flux de reserva automatitzat&lt;br&gt;&lt;/h1&gt;&lt;div&gt;Amb usuaries no registrades i tenint en compte els preus públics&lt;br&gt;&lt;/div&gt;" style="text;html=1;strokeColor=none;fillColor=none;spacing=5;spacingTop=-20;whiteSpace=wrap;overflow=hidden;rounded=0;" parent="1" vertex="1">
          <mxGeometry x="-1090" y="885" width="435" height="120" as="geometry" />
        </mxCell>
        <mxCell id="eaU4gPAbgvnITO38szU_-103" style="edgeStyle=orthogonalEdgeStyle;rounded=0;orthogonalLoop=1;jettySize=auto;html=1;entryX=0.5;entryY=0;entryDx=0;entryDy=0;" parent="1" source="AwSX1SjbMn1UK7kxIGxx-267" target="AwSX1SjbMn1UK7kxIGxx-269" edge="1">
          <mxGeometry relative="1" as="geometry" />
        </mxCell>
        <mxCell id="AwSX1SjbMn1UK7kxIGxx-267" value="Usuària anònima" style="rounded=1;whiteSpace=wrap;html=1;" parent="1" vertex="1">
          <mxGeometry x="-1060" y="1001" width="120" height="50" as="geometry" />
        </mxCell>
        <mxCell id="eaU4gPAbgvnITO38szU_-9" style="edgeStyle=orthogonalEdgeStyle;rounded=0;orthogonalLoop=1;jettySize=auto;html=1;exitX=1;exitY=0.5;exitDx=0;exitDy=0;startArrow=none;" parent="1" source="eaU4gPAbgvnITO38szU_-113" edge="1">
          <mxGeometry relative="1" as="geometry">
            <mxPoint x="-740" y="1190" as="targetPoint" />
          </mxGeometry>
        </mxCell>
        <mxCell id="AwSX1SjbMn1UK7kxIGxx-269" value="Reserva web" style="swimlane;fontStyle=1;childLayout=stackLayout;horizontal=1;startSize=26;horizontalStack=0;resizeParent=1;resizeParentMax=0;resizeLast=0;collapsible=1;marginBottom=0;" parent="1" vertex="1">
          <mxGeometry x="-1070" y="1088" width="140" height="200" as="geometry" />
        </mxCell>
        <mxCell id="AwSX1SjbMn1UK7kxIGxx-270" value="Dades de contacte&#xa;- correu electrònic&#xa;- Nom entitat&#xa;- NIF&#xa;&#xa;Dades de l&#39;activitat&#xa;- Nom de l&#39;activitat&#xa;- Aforament&#xa;- Necessitats tècniques&#xa;&#xa;Criteris de valoració&#xa;" style="text;strokeColor=none;align=left;verticalAlign=top;spacingLeft=4;spacingRight=4;overflow=hidden;rotatable=0;points=[[0,0.5],[1,0.5]];portConstraint=eastwest;fillColor=#ffffff;" parent="AwSX1SjbMn1UK7kxIGxx-269" vertex="1">
          <mxGeometry y="26" width="140" height="174" as="geometry" />
        </mxCell>
        <mxCell id="eaU4gPAbgvnITO38szU_-16" value="" style="edgeStyle=orthogonalEdgeStyle;rounded=0;orthogonalLoop=1;jettySize=auto;html=1;" parent="1" source="eaU4gPAbgvnITO38szU_-4" target="eaU4gPAbgvnITO38szU_-8" edge="1">
          <mxGeometry relative="1" as="geometry" />
        </mxCell>
        <mxCell id="eaU4gPAbgvnITO38szU_-30" value="" style="edgeStyle=orthogonalEdgeStyle;rounded=0;orthogonalLoop=1;jettySize=auto;html=1;" parent="1" source="eaU4gPAbgvnITO38szU_-4" target="eaU4gPAbgvnITO38szU_-29" edge="1">
          <mxGeometry relative="1" as="geometry" />
        </mxCell>
        <mxCell id="eaU4gPAbgvnITO38szU_-4" value="Vinculat a les accions del CAN?" style="swimlane;gradientColor=#ffffff;swimlaneFillColor=#ffffff;" parent="1" vertex="1">
          <mxGeometry x="-745" y="1118" width="195" height="130" as="geometry" />
        </mxCell>
        <mxCell id="eaU4gPAbgvnITO38szU_-5" value="&lt;div align=&quot;left&quot;&gt;&lt;b&gt;Temàtica&lt;/b&gt;:&lt;br&gt;Feminismes&lt;br&gt;Tecnologies obertes&lt;br&gt;Democràcia&lt;br&gt;Cultura digital&lt;br&gt;&lt;/div&gt;&lt;div align=&quot;left&quot;&gt;Memòria històrica&lt;/div&gt;" style="text;html=1;align=left;verticalAlign=middle;resizable=0;points=[];autosize=1;strokeColor=none;" parent="eaU4gPAbgvnITO38szU_-4" vertex="1">
          <mxGeometry x="10" y="30" width="120" height="90" as="geometry" />
        </mxCell>
        <mxCell id="eaU4gPAbgvnITO38szU_-7" value="SI" style="ellipse;whiteSpace=wrap;html=1;aspect=fixed;" parent="1" vertex="1">
          <mxGeometry x="-520" y="1163" width="40" height="40" as="geometry" />
        </mxCell>
        <mxCell id="eaU4gPAbgvnITO38szU_-25" value="" style="edgeStyle=orthogonalEdgeStyle;rounded=0;orthogonalLoop=1;jettySize=auto;html=1;" parent="1" source="eaU4gPAbgvnITO38szU_-8" target="eaU4gPAbgvnITO38szU_-21" edge="1">
          <mxGeometry relative="1" as="geometry" />
        </mxCell>
        <mxCell id="eaU4gPAbgvnITO38szU_-46" value="" style="edgeStyle=orthogonalEdgeStyle;rounded=0;orthogonalLoop=1;jettySize=auto;html=1;" parent="1" source="eaU4gPAbgvnITO38szU_-8" target="eaU4gPAbgvnITO38szU_-41" edge="1">
          <mxGeometry relative="1" as="geometry" />
        </mxCell>
        <mxCell id="eaU4gPAbgvnITO38szU_-8" value="Activitat gratuïta oberta a la ciutadania?" style="rounded=0;whiteSpace=wrap;html=1;" parent="1" vertex="1">
          <mxGeometry x="-446" y="1153" width="120" height="60" as="geometry" />
        </mxCell>
        <mxCell id="eaU4gPAbgvnITO38szU_-42" value="" style="edgeStyle=orthogonalEdgeStyle;rounded=0;orthogonalLoop=1;jettySize=auto;html=1;" parent="1" source="eaU4gPAbgvnITO38szU_-12" target="eaU4gPAbgvnITO38szU_-41" edge="1">
          <mxGeometry relative="1" as="geometry" />
        </mxCell>
        <mxCell id="eaU4gPAbgvnITO38szU_-12" value="SI" style="ellipse;whiteSpace=wrap;html=1;aspect=fixed;" parent="1" vertex="1">
          <mxGeometry x="-300" y="1163" width="40" height="40" as="geometry" />
        </mxCell>
        <mxCell id="eaU4gPAbgvnITO38szU_-18" value="" style="edgeStyle=orthogonalEdgeStyle;rounded=0;orthogonalLoop=1;jettySize=auto;html=1;" parent="1" source="eaU4gPAbgvnITO38szU_-13" target="eaU4gPAbgvnITO38szU_-17" edge="1">
          <mxGeometry relative="1" as="geometry" />
        </mxCell>
        <mxCell id="eaU4gPAbgvnITO38szU_-13" value="Gratuïtat" style="rounded=0;whiteSpace=wrap;html=1;" parent="1" vertex="1">
          <mxGeometry x="20" y="1168" width="80" height="30" as="geometry" />
        </mxCell>
        <mxCell id="eaU4gPAbgvnITO38szU_-17" value="&lt;div&gt;Calendari de reserves web&lt;/div&gt;&lt;div&gt;BOOKED&lt;br&gt;&lt;/div&gt;" style="shape=tape;whiteSpace=wrap;html=1;strokeWidth=2;size=0.19" parent="1" vertex="1">
          <mxGeometry x="210" y="1188" width="100" height="100" as="geometry" />
        </mxCell>
        <mxCell id="eaU4gPAbgvnITO38szU_-19" value="NO" style="ellipse;whiteSpace=wrap;html=1;aspect=fixed;" parent="1" vertex="1">
          <mxGeometry x="-406" y="1233" width="40" height="40" as="geometry" />
        </mxCell>
        <mxCell id="eaU4gPAbgvnITO38szU_-21" value="Activitat gratuïta tancada adreçada als membres de l&#39;organització" style="rounded=0;whiteSpace=wrap;html=1;" parent="1" vertex="1">
          <mxGeometry x="-446" y="1308" width="120" height="70" as="geometry" />
        </mxCell>
        <mxCell id="eaU4gPAbgvnITO38szU_-57" value="" style="edgeStyle=orthogonalEdgeStyle;rounded=0;orthogonalLoop=1;jettySize=auto;html=1;" parent="1" source="eaU4gPAbgvnITO38szU_-22" target="eaU4gPAbgvnITO38szU_-53" edge="1">
          <mxGeometry relative="1" as="geometry" />
        </mxCell>
        <mxCell id="eaU4gPAbgvnITO38szU_-22" value="SI" style="ellipse;whiteSpace=wrap;html=1;aspect=fixed;" parent="1" vertex="1">
          <mxGeometry x="-300" y="1323" width="40" height="40" as="geometry" />
        </mxCell>
        <mxCell id="eaU4gPAbgvnITO38szU_-24" value="" style="edgeStyle=orthogonalEdgeStyle;rounded=0;orthogonalLoop=1;jettySize=auto;html=1;endArrow=none;" parent="1" source="eaU4gPAbgvnITO38szU_-21" target="eaU4gPAbgvnITO38szU_-22" edge="1">
          <mxGeometry relative="1" as="geometry">
            <mxPoint x="-326" y="1343" as="sourcePoint" />
            <mxPoint x="-215" y="1343" as="targetPoint" />
          </mxGeometry>
        </mxCell>
        <mxCell id="eaU4gPAbgvnITO38szU_-27" value="NO" style="ellipse;whiteSpace=wrap;html=1;aspect=fixed;" parent="1" vertex="1">
          <mxGeometry x="-667.5" y="1267" width="40" height="40" as="geometry" />
        </mxCell>
        <mxCell id="eaU4gPAbgvnITO38szU_-65" style="edgeStyle=orthogonalEdgeStyle;rounded=0;orthogonalLoop=1;jettySize=auto;html=1;entryX=0;entryY=0.5;entryDx=0;entryDy=0;" parent="1" source="eaU4gPAbgvnITO38szU_-28" target="eaU4gPAbgvnITO38szU_-64" edge="1">
          <mxGeometry relative="1" as="geometry" />
        </mxCell>
        <mxCell id="eaU4gPAbgvnITO38szU_-28" value="Cost segons sala" style="swimlane;gradientColor=#ffffff;swimlaneFillColor=#ffffff;" parent="1" vertex="1">
          <mxGeometry x="-945" y="1468" width="200" height="180" as="geometry" />
        </mxCell>
        <mxCell id="eaU4gPAbgvnITO38szU_-32" value="&lt;div align=&quot;left&quot;&gt;Sales de reunions --&amp;gt; 10 €/h&lt;/div&gt;&lt;div align=&quot;left&quot;&gt;Aules informàtiques --&amp;gt; 15 €/h&lt;br&gt;&lt;/div&gt;&lt;div&gt;Sales d&#39;actes --&amp;gt; 20 €/h&lt;br&gt;&amp;nbsp;&amp;nbsp;&amp;nbsp;&amp;nbsp;&amp;nbsp;&amp;nbsp;&amp;nbsp;&amp;nbsp;&amp;nbsp;&amp;nbsp;&amp;nbsp;&amp;nbsp;&amp;nbsp;&amp;nbsp;&amp;nbsp;&amp;nbsp;&amp;nbsp;&amp;nbsp;&amp;nbsp;&amp;nbsp;&amp;nbsp;&amp;nbsp;&amp;nbsp;&amp;nbsp;&amp;nbsp;&amp;nbsp;&amp;nbsp; 60 € mig dia&lt;/div&gt;&lt;div&gt;&amp;nbsp; &amp;nbsp; &amp;nbsp; &amp;nbsp; &amp;nbsp; &amp;nbsp; &amp;nbsp; &amp;nbsp; &amp;nbsp; &amp;nbsp; &amp;nbsp; &amp;nbsp; &amp;nbsp; &amp;nbsp; 100 € dia &lt;br&gt;&lt;/div&gt;&lt;div&gt;Terrasses --&amp;gt; 30 € hora&lt;/div&gt;&lt;div&gt;&amp;nbsp;&amp;nbsp;&amp;nbsp;&amp;nbsp;&amp;nbsp;&amp;nbsp;&amp;nbsp;&amp;nbsp;&amp;nbsp;&amp;nbsp;&amp;nbsp;&amp;nbsp;&amp;nbsp;&amp;nbsp;&amp;nbsp;&amp;nbsp;&amp;nbsp;&amp;nbsp;&amp;nbsp;&amp;nbsp;&amp;nbsp; 90 € mig dia&lt;/div&gt;&lt;div&gt;&amp;nbsp;&amp;nbsp;&amp;nbsp;&amp;nbsp;&amp;nbsp;&amp;nbsp;&amp;nbsp;&amp;nbsp;&amp;nbsp;&amp;nbsp;&amp;nbsp;&amp;nbsp;&amp;nbsp;&amp;nbsp;&amp;nbsp;&amp;nbsp;&amp;nbsp;&amp;nbsp;&amp;nbsp;&amp;nbsp;&amp;nbsp; 150 € dia&lt;/div&gt;&lt;div&gt;Grades --&amp;gt; 20 €/h&lt;br&gt;&lt;/div&gt;" style="text;html=1;align=left;verticalAlign=middle;resizable=0;points=[];autosize=1;strokeColor=none;" parent="eaU4gPAbgvnITO38szU_-28" vertex="1">
          <mxGeometry x="10" y="35" width="180" height="130" as="geometry" />
        </mxCell>
        <mxCell id="eaU4gPAbgvnITO38szU_-33" style="edgeStyle=orthogonalEdgeStyle;rounded=0;orthogonalLoop=1;jettySize=auto;html=1;" parent="1" source="eaU4gPAbgvnITO38szU_-29" target="eaU4gPAbgvnITO38szU_-31" edge="1">
          <mxGeometry relative="1" as="geometry" />
        </mxCell>
        <mxCell id="eaU4gPAbgvnITO38szU_-29" value="&lt;div&gt;Entitat sense ànim &lt;br&gt;&lt;/div&gt;&lt;div&gt;de lucre&lt;/div&gt;?" style="rounded=0;whiteSpace=wrap;html=1;" parent="1" vertex="1">
          <mxGeometry x="-707.5" y="1338" width="120" height="70" as="geometry" />
        </mxCell>
        <mxCell id="eaU4gPAbgvnITO38szU_-39" value="" style="edgeStyle=orthogonalEdgeStyle;rounded=0;orthogonalLoop=1;jettySize=auto;html=1;" parent="1" source="eaU4gPAbgvnITO38szU_-29" target="eaU4gPAbgvnITO38szU_-38" edge="1">
          <mxGeometry relative="1" as="geometry" />
        </mxCell>
        <mxCell id="eaU4gPAbgvnITO38szU_-40" style="edgeStyle=orthogonalEdgeStyle;rounded=0;orthogonalLoop=1;jettySize=auto;html=1;" parent="1" source="eaU4gPAbgvnITO38szU_-31" target="eaU4gPAbgvnITO38szU_-28" edge="1">
          <mxGeometry relative="1" as="geometry" />
        </mxCell>
        <mxCell id="eaU4gPAbgvnITO38szU_-31" value="SI" style="ellipse;whiteSpace=wrap;html=1;aspect=fixed;" parent="1" vertex="1">
          <mxGeometry x="-865" y="1353" width="40" height="40" as="geometry" />
        </mxCell>
        <mxCell id="eaU4gPAbgvnITO38szU_-63" style="edgeStyle=orthogonalEdgeStyle;rounded=0;orthogonalLoop=1;jettySize=auto;html=1;entryX=0.5;entryY=0;entryDx=0;entryDy=0;" parent="1" source="eaU4gPAbgvnITO38szU_-38" target="eaU4gPAbgvnITO38szU_-61" edge="1">
          <mxGeometry relative="1" as="geometry" />
        </mxCell>
        <mxCell id="eaU4gPAbgvnITO38szU_-38" value="NO" style="ellipse;whiteSpace=wrap;html=1;aspect=fixed;" parent="1" vertex="1">
          <mxGeometry x="-533" y="1353" width="40" height="40" as="geometry" />
        </mxCell>
        <mxCell id="eaU4gPAbgvnITO38szU_-47" value="" style="edgeStyle=orthogonalEdgeStyle;rounded=0;orthogonalLoop=1;jettySize=auto;html=1;" parent="1" source="eaU4gPAbgvnITO38szU_-41" target="eaU4gPAbgvnITO38szU_-43" edge="1">
          <mxGeometry relative="1" as="geometry" />
        </mxCell>
        <mxCell id="eaU4gPAbgvnITO38szU_-49" value="" style="edgeStyle=orthogonalEdgeStyle;rounded=0;orthogonalLoop=1;jettySize=auto;html=1;" parent="1" source="eaU4gPAbgvnITO38szU_-41" target="eaU4gPAbgvnITO38szU_-48" edge="1">
          <mxGeometry relative="1" as="geometry" />
        </mxCell>
        <mxCell id="eaU4gPAbgvnITO38szU_-41" value="Serveis associats?" style="rounded=0;whiteSpace=wrap;html=1;" parent="1" vertex="1">
          <mxGeometry x="-214" y="1153" width="120" height="60" as="geometry" />
        </mxCell>
        <mxCell id="eaU4gPAbgvnITO38szU_-45" value="" style="edgeStyle=orthogonalEdgeStyle;rounded=0;orthogonalLoop=1;jettySize=auto;html=1;" parent="1" source="eaU4gPAbgvnITO38szU_-43" target="eaU4gPAbgvnITO38szU_-13" edge="1">
          <mxGeometry relative="1" as="geometry" />
        </mxCell>
        <mxCell id="eaU4gPAbgvnITO38szU_-43" value="NO" style="ellipse;whiteSpace=wrap;html=1;aspect=fixed;" parent="1" vertex="1">
          <mxGeometry x="-50" y="1163" width="40" height="40" as="geometry" />
        </mxCell>
        <mxCell id="eaU4gPAbgvnITO38szU_-76" style="edgeStyle=orthogonalEdgeStyle;rounded=0;orthogonalLoop=1;jettySize=auto;html=1;" parent="1" source="eaU4gPAbgvnITO38szU_-48" target="eaU4gPAbgvnITO38szU_-74" edge="1">
          <mxGeometry relative="1" as="geometry" />
        </mxCell>
        <mxCell id="eaU4gPAbgvnITO38szU_-48" value="SI" style="ellipse;whiteSpace=wrap;html=1;aspect=fixed;" parent="1" vertex="1">
          <mxGeometry x="-175" y="1233" width="40" height="40" as="geometry" />
        </mxCell>
        <mxCell id="eaU4gPAbgvnITO38szU_-58" style="edgeStyle=orthogonalEdgeStyle;rounded=0;orthogonalLoop=1;jettySize=auto;html=1;" parent="1" source="eaU4gPAbgvnITO38szU_-50" target="eaU4gPAbgvnITO38szU_-17" edge="1">
          <mxGeometry relative="1" as="geometry" />
        </mxCell>
        <mxCell id="eaU4gPAbgvnITO38szU_-50" value="Gratuïtat" style="rounded=0;whiteSpace=wrap;html=1;" parent="1" vertex="1">
          <mxGeometry x="20" y="1328" width="80" height="30" as="geometry" />
        </mxCell>
        <mxCell id="eaU4gPAbgvnITO38szU_-51" value="" style="edgeStyle=orthogonalEdgeStyle;rounded=0;orthogonalLoop=1;jettySize=auto;html=1;" parent="1" source="eaU4gPAbgvnITO38szU_-53" target="eaU4gPAbgvnITO38szU_-55" edge="1">
          <mxGeometry relative="1" as="geometry" />
        </mxCell>
        <mxCell id="eaU4gPAbgvnITO38szU_-60" style="edgeStyle=orthogonalEdgeStyle;rounded=0;orthogonalLoop=1;jettySize=auto;html=1;entryX=0;entryY=0.5;entryDx=0;entryDy=0;exitX=0.25;exitY=1;exitDx=0;exitDy=0;" parent="1" source="eaU4gPAbgvnITO38szU_-53" target="eaU4gPAbgvnITO38szU_-56" edge="1">
          <mxGeometry relative="1" as="geometry" />
        </mxCell>
        <mxCell id="eaU4gPAbgvnITO38szU_-53" value="Serveis associats?" style="rounded=0;whiteSpace=wrap;html=1;" parent="1" vertex="1">
          <mxGeometry x="-220" y="1313" width="120" height="60" as="geometry" />
        </mxCell>
        <mxCell id="eaU4gPAbgvnITO38szU_-54" value="" style="edgeStyle=orthogonalEdgeStyle;rounded=0;orthogonalLoop=1;jettySize=auto;html=1;" parent="1" source="eaU4gPAbgvnITO38szU_-55" target="eaU4gPAbgvnITO38szU_-50" edge="1">
          <mxGeometry relative="1" as="geometry" />
        </mxCell>
        <mxCell id="eaU4gPAbgvnITO38szU_-55" value="NO" style="ellipse;whiteSpace=wrap;html=1;aspect=fixed;" parent="1" vertex="1">
          <mxGeometry x="-50" y="1323" width="40" height="40" as="geometry" />
        </mxCell>
        <mxCell id="eaU4gPAbgvnITO38szU_-75" style="edgeStyle=orthogonalEdgeStyle;rounded=0;orthogonalLoop=1;jettySize=auto;html=1;exitX=1;exitY=0.5;exitDx=0;exitDy=0;entryX=0.25;entryY=0;entryDx=0;entryDy=0;" parent="1" source="eaU4gPAbgvnITO38szU_-56" target="eaU4gPAbgvnITO38szU_-74" edge="1">
          <mxGeometry relative="1" as="geometry" />
        </mxCell>
        <mxCell id="eaU4gPAbgvnITO38szU_-56" value="SI" style="ellipse;whiteSpace=wrap;html=1;aspect=fixed;direction=south;" parent="1" vertex="1">
          <mxGeometry x="-205" y="1408" width="40" height="40" as="geometry" />
        </mxCell>
        <mxCell id="eaU4gPAbgvnITO38szU_-61" value="Cost segons sala" style="swimlane;gradientColor=#ffffff;swimlaneFillColor=#ffffff;" parent="1" vertex="1">
          <mxGeometry x="-613" y="1468" width="200" height="180" as="geometry" />
        </mxCell>
        <mxCell id="eaU4gPAbgvnITO38szU_-62" value="&lt;div align=&quot;left&quot;&gt;Sales de reunions --&amp;gt; 25 €/h&lt;/div&gt;&lt;div align=&quot;left&quot;&gt;Aules informàtiques --&amp;gt; 45 €/h&lt;br&gt;&lt;/div&gt;&lt;div&gt;Sales d&#39;actes --&amp;gt; 20 €/h&lt;br&gt;&amp;nbsp;&amp;nbsp;&amp;nbsp;&amp;nbsp;&amp;nbsp;&amp;nbsp;&amp;nbsp;&amp;nbsp;&amp;nbsp;&amp;nbsp;&amp;nbsp;&amp;nbsp;&amp;nbsp;&amp;nbsp;&amp;nbsp;&amp;nbsp;&amp;nbsp;&amp;nbsp;&amp;nbsp;&amp;nbsp;&amp;nbsp;&amp;nbsp;&amp;nbsp;&amp;nbsp;&amp;nbsp;&amp;nbsp;&amp;nbsp; 150 € mig dia&lt;/div&gt;&lt;div&gt;&amp;nbsp; &amp;nbsp; &amp;nbsp; &amp;nbsp; &amp;nbsp; &amp;nbsp; &amp;nbsp; &amp;nbsp; &amp;nbsp; &amp;nbsp; &amp;nbsp; &amp;nbsp; &amp;nbsp; &amp;nbsp; 300 € dia &lt;br&gt;&lt;/div&gt;&lt;div&gt;Terrasses --&amp;gt; 50 € hora&lt;/div&gt;&lt;div&gt;&amp;nbsp;&amp;nbsp;&amp;nbsp;&amp;nbsp;&amp;nbsp;&amp;nbsp;&amp;nbsp;&amp;nbsp;&amp;nbsp;&amp;nbsp;&amp;nbsp;&amp;nbsp;&amp;nbsp;&amp;nbsp;&amp;nbsp;&amp;nbsp;&amp;nbsp;&amp;nbsp;&amp;nbsp;&amp;nbsp;&amp;nbsp; 150 € mig dia&lt;/div&gt;&lt;div&gt;&amp;nbsp;&amp;nbsp;&amp;nbsp;&amp;nbsp;&amp;nbsp;&amp;nbsp;&amp;nbsp;&amp;nbsp;&amp;nbsp;&amp;nbsp;&amp;nbsp;&amp;nbsp;&amp;nbsp;&amp;nbsp;&amp;nbsp;&amp;nbsp;&amp;nbsp;&amp;nbsp;&amp;nbsp;&amp;nbsp;&amp;nbsp; 300 € dia&lt;/div&gt;&lt;div&gt;Grades --&amp;gt; 40 €/h&lt;br&gt;&lt;/div&gt;" style="text;html=1;align=left;verticalAlign=middle;resizable=0;points=[];autosize=1;strokeColor=none;" parent="eaU4gPAbgvnITO38szU_-61" vertex="1">
          <mxGeometry x="10" y="35" width="180" height="130" as="geometry" />
        </mxCell>
        <mxCell id="eaU4gPAbgvnITO38szU_-68" value="" style="edgeStyle=orthogonalEdgeStyle;rounded=0;orthogonalLoop=1;jettySize=auto;html=1;" parent="1" source="eaU4gPAbgvnITO38szU_-64" target="eaU4gPAbgvnITO38szU_-67" edge="1">
          <mxGeometry relative="1" as="geometry" />
        </mxCell>
        <mxCell id="eaU4gPAbgvnITO38szU_-93" value="" style="edgeStyle=orthogonalEdgeStyle;rounded=0;orthogonalLoop=1;jettySize=auto;html=1;" parent="1" source="eaU4gPAbgvnITO38szU_-64" target="eaU4gPAbgvnITO38szU_-92" edge="1">
          <mxGeometry relative="1" as="geometry" />
        </mxCell>
        <mxCell id="eaU4gPAbgvnITO38szU_-64" value="Serveis associats?" style="rounded=0;whiteSpace=wrap;html=1;" parent="1" vertex="1">
          <mxGeometry x="-795" y="1703" width="120" height="60" as="geometry" />
        </mxCell>
        <mxCell id="eaU4gPAbgvnITO38szU_-79" style="edgeStyle=orthogonalEdgeStyle;rounded=0;orthogonalLoop=1;jettySize=auto;html=1;entryX=0;entryY=0.5;entryDx=0;entryDy=0;" parent="1" source="eaU4gPAbgvnITO38szU_-67" target="eaU4gPAbgvnITO38szU_-72" edge="1">
          <mxGeometry relative="1" as="geometry" />
        </mxCell>
        <mxCell id="eaU4gPAbgvnITO38szU_-67" value="SI" style="ellipse;whiteSpace=wrap;html=1;aspect=fixed;direction=south;" parent="1" vertex="1">
          <mxGeometry x="-580" y="1713" width="40" height="40" as="geometry" />
        </mxCell>
        <mxCell id="eaU4gPAbgvnITO38szU_-98" style="edgeStyle=orthogonalEdgeStyle;rounded=0;orthogonalLoop=1;jettySize=auto;html=1;entryX=0.5;entryY=0;entryDx=0;entryDy=0;entryPerimeter=0;" parent="1" source="eaU4gPAbgvnITO38szU_-72" target="eaU4gPAbgvnITO38szU_-94" edge="1">
          <mxGeometry relative="1" as="geometry">
            <Array as="points">
              <mxPoint x="-285" y="1928" />
              <mxPoint x="-371" y="1928" />
            </Array>
          </mxGeometry>
        </mxCell>
        <mxCell id="eaU4gPAbgvnITO38szU_-72" value="Costos serveis" style="swimlane;gradientColor=#ffffff;swimlaneFillColor=#ffffff;" parent="1" vertex="1">
          <mxGeometry x="-396.5" y="1668" width="223" height="130" as="geometry" />
        </mxCell>
        <mxCell id="eaU4gPAbgvnITO38szU_-81" value="&lt;div align=&quot;left&quot;&gt;Servei de neteja --&amp;gt; 30 /h&lt;/div&gt;&lt;div align=&quot;left&quot;&gt;Servei de seguretat --&amp;gt; 30 €/h&lt;/div&gt;&lt;div align=&quot;left&quot;&gt;Tècnica en TIC --&amp;gt; 30 €/h&lt;br&gt;Dinamitzadora de sessió --&amp;gt; 30 €/h&lt;br&gt;&lt;/div&gt;" style="text;html=1;align=left;verticalAlign=middle;resizable=0;points=[];autosize=1;strokeColor=none;" parent="eaU4gPAbgvnITO38szU_-72" vertex="1">
          <mxGeometry x="11.5" y="40" width="200" height="60" as="geometry" />
        </mxCell>
        <mxCell id="eaU4gPAbgvnITO38szU_-78" value="" style="edgeStyle=orthogonalEdgeStyle;rounded=0;orthogonalLoop=1;jettySize=auto;html=1;" parent="1" source="eaU4gPAbgvnITO38szU_-74" target="eaU4gPAbgvnITO38szU_-77" edge="1">
          <mxGeometry relative="1" as="geometry" />
        </mxCell>
        <mxCell id="eaU4gPAbgvnITO38szU_-83" value="" style="edgeStyle=orthogonalEdgeStyle;rounded=0;orthogonalLoop=1;jettySize=auto;html=1;" parent="1" source="eaU4gPAbgvnITO38szU_-74" target="eaU4gPAbgvnITO38szU_-82" edge="1">
          <mxGeometry relative="1" as="geometry" />
        </mxCell>
        <mxCell id="eaU4gPAbgvnITO38szU_-74" value="&lt;div&gt;Entitat sense ànim &lt;br&gt;&lt;/div&gt;&lt;div&gt;de lucre&lt;/div&gt;?" style="rounded=0;whiteSpace=wrap;html=1;" parent="1" vertex="1">
          <mxGeometry x="-215" y="1498" width="120" height="70" as="geometry" />
        </mxCell>
        <mxCell id="eaU4gPAbgvnITO38szU_-80" style="edgeStyle=orthogonalEdgeStyle;rounded=0;orthogonalLoop=1;jettySize=auto;html=1;entryX=0.5;entryY=0;entryDx=0;entryDy=0;" parent="1" source="eaU4gPAbgvnITO38szU_-77" target="eaU4gPAbgvnITO38szU_-72" edge="1">
          <mxGeometry relative="1" as="geometry" />
        </mxCell>
        <mxCell id="eaU4gPAbgvnITO38szU_-77" value="SI" style="ellipse;whiteSpace=wrap;html=1;aspect=fixed;" parent="1" vertex="1">
          <mxGeometry x="-305" y="1552" width="40" height="40" as="geometry" />
        </mxCell>
        <mxCell id="eaU4gPAbgvnITO38szU_-86" style="edgeStyle=orthogonalEdgeStyle;rounded=0;orthogonalLoop=1;jettySize=auto;html=1;entryX=0.5;entryY=0;entryDx=0;entryDy=0;" parent="1" source="eaU4gPAbgvnITO38szU_-82" target="eaU4gPAbgvnITO38szU_-84" edge="1">
          <mxGeometry relative="1" as="geometry" />
        </mxCell>
        <mxCell id="eaU4gPAbgvnITO38szU_-82" value="NO" style="ellipse;whiteSpace=wrap;html=1;aspect=fixed;" parent="1" vertex="1">
          <mxGeometry x="-150" y="1628" width="40" height="40" as="geometry" />
        </mxCell>
        <mxCell id="eaU4gPAbgvnITO38szU_-99" style="edgeStyle=orthogonalEdgeStyle;rounded=0;orthogonalLoop=1;jettySize=auto;html=1;" parent="1" source="eaU4gPAbgvnITO38szU_-84" edge="1">
          <mxGeometry relative="1" as="geometry">
            <mxPoint x="-370" y="1968" as="targetPoint" />
            <Array as="points">
              <mxPoint x="32" y="1928" />
              <mxPoint x="-370" y="1928" />
            </Array>
          </mxGeometry>
        </mxCell>
        <mxCell id="eaU4gPAbgvnITO38szU_-84" value="Costos serveis" style="swimlane;gradientColor=#ffffff;swimlaneFillColor=#ffffff;" parent="1" vertex="1">
          <mxGeometry x="-80" y="1668" width="223" height="130" as="geometry" />
        </mxCell>
        <mxCell id="eaU4gPAbgvnITO38szU_-85" value="&lt;div align=&quot;left&quot;&gt;Servei de neteja --&amp;gt; 50 /h&lt;/div&gt;&lt;div align=&quot;left&quot;&gt;Servei de seguretat --&amp;gt; 50 €/h&lt;/div&gt;&lt;div align=&quot;left&quot;&gt;Tècnica en TIC --&amp;gt; 80 €/h&lt;br&gt;Dinamitzadora de sessió --&amp;gt; 80 €/h&lt;br&gt;&lt;/div&gt;" style="text;html=1;align=left;verticalAlign=middle;resizable=0;points=[];autosize=1;strokeColor=none;fillColor=#ffffff;gradientColor=#ffffff;" parent="eaU4gPAbgvnITO38szU_-84" vertex="1">
          <mxGeometry x="13" y="40" width="200" height="60" as="geometry" />
        </mxCell>
        <mxCell id="eaU4gPAbgvnITO38szU_-95" style="edgeStyle=orthogonalEdgeStyle;rounded=0;orthogonalLoop=1;jettySize=auto;html=1;" parent="1" source="eaU4gPAbgvnITO38szU_-92" target="eaU4gPAbgvnITO38szU_-94" edge="1">
          <mxGeometry relative="1" as="geometry" />
        </mxCell>
        <mxCell id="eaU4gPAbgvnITO38szU_-92" value="NO" style="ellipse;whiteSpace=wrap;html=1;rounded=0;" parent="1" vertex="1">
          <mxGeometry x="-756" y="1798" width="42.5" height="40" as="geometry" />
        </mxCell>
        <mxCell id="eaU4gPAbgvnITO38szU_-106" value="" style="edgeStyle=orthogonalEdgeStyle;rounded=0;orthogonalLoop=1;jettySize=auto;html=1;" parent="1" source="eaU4gPAbgvnITO38szU_-94" target="eaU4gPAbgvnITO38szU_-105" edge="1">
          <mxGeometry relative="1" as="geometry" />
        </mxCell>
        <mxCell id="eaU4gPAbgvnITO38szU_-94" value="Pressupost de cessió" style="shape=note;whiteSpace=wrap;html=1;backgroundOutline=1;darkOpacity=0.05;" parent="1" vertex="1">
          <mxGeometry x="-406" y="1968" width="70" height="100" as="geometry" />
        </mxCell>
        <mxCell id="eaU4gPAbgvnITO38szU_-108" value="" style="edgeStyle=orthogonalEdgeStyle;rounded=0;orthogonalLoop=1;jettySize=auto;html=1;" parent="1" source="eaU4gPAbgvnITO38szU_-105" target="eaU4gPAbgvnITO38szU_-107" edge="1">
          <mxGeometry relative="1" as="geometry" />
        </mxCell>
        <mxCell id="eaU4gPAbgvnITO38szU_-105" value="Validació Oficina" style="whiteSpace=wrap;html=1;" parent="1" vertex="1">
          <mxGeometry x="-281" y="1988" width="120" height="60" as="geometry" />
        </mxCell>
        <mxCell id="eaU4gPAbgvnITO38szU_-110" value="" style="edgeStyle=orthogonalEdgeStyle;rounded=0;orthogonalLoop=1;jettySize=auto;html=1;" parent="1" source="eaU4gPAbgvnITO38szU_-107" target="eaU4gPAbgvnITO38szU_-109" edge="1">
          <mxGeometry relative="1" as="geometry" />
        </mxCell>
        <mxCell id="eaU4gPAbgvnITO38szU_-107" value="Enviar a sol·licitant" style="whiteSpace=wrap;html=1;" parent="1" vertex="1">
          <mxGeometry x="-129" y="1988" width="120" height="60" as="geometry" />
        </mxCell>
        <mxCell id="eaU4gPAbgvnITO38szU_-111" style="edgeStyle=orthogonalEdgeStyle;rounded=0;orthogonalLoop=1;jettySize=auto;html=1;entryX=1;entryY=0.5;entryDx=0;entryDy=0;entryPerimeter=0;" parent="1" source="eaU4gPAbgvnITO38szU_-109" target="eaU4gPAbgvnITO38szU_-17" edge="1">
          <mxGeometry relative="1" as="geometry" />
        </mxCell>
        <mxCell id="eaU4gPAbgvnITO38szU_-109" value="Recepció de justificant" style="whiteSpace=wrap;html=1;" parent="1" vertex="1">
          <mxGeometry x="23" y="1988" width="120" height="60" as="geometry" />
        </mxCell>
        <mxCell id="eaU4gPAbgvnITO38szU_-112" value="" style="edgeStyle=orthogonalEdgeStyle;rounded=0;orthogonalLoop=1;jettySize=auto;html=1;" parent="1" source="eaU4gPAbgvnITO38szU_-32" target="eaU4gPAbgvnITO38szU_-31" edge="1">
          <mxGeometry relative="1" as="geometry" />
        </mxCell>
        <mxCell id="eaU4gPAbgvnITO38szU_-113" value="&lt;div&gt;Calendari de reserves web&lt;/div&gt;&lt;div&gt;NOT AVAILABLE&lt;br&gt;&lt;/div&gt;" style="shape=tape;whiteSpace=wrap;html=1;strokeWidth=2;size=0.19" parent="1" vertex="1">
          <mxGeometry x="-890" y="1143" width="100" height="100" as="geometry" />
        </mxCell>
        <mxCell id="eaU4gPAbgvnITO38szU_-114" value="" style="edgeStyle=orthogonalEdgeStyle;rounded=0;orthogonalLoop=1;jettySize=auto;html=1;exitX=1;exitY=0.5;exitDx=0;exitDy=0;endArrow=none;" parent="1" source="AwSX1SjbMn1UK7kxIGxx-269" target="eaU4gPAbgvnITO38szU_-113" edge="1">
          <mxGeometry relative="1" as="geometry">
            <mxPoint x="-740" y="1190" as="targetPoint" />
            <mxPoint x="-930" y="1188" as="sourcePoint" />
          </mxGeometry>
        </mxCell>
      </root>
    </mxGraphModel>
  </diagram>
</mxfile>
